<svg xmlns="http://www.w3.org/2000/svg" xmlns:xlink="http://www.w3.org/1999/xlink" viewBox="0 0 410 404">
  <defs>
    <linearGradient id="a" x1="6.000%" x2="235.000%" y1="33.000%" y2="344.000%">
      <stop offset="0%" stop-color="#41D1FF" />
      <stop offset="100%" stop-color="#BD34FE" />
    </linearGradient>
    <linearGradient id="b" x1="194.000%" x2="50.000%" y1="8.000%" y2="50.000%">
      <stop offset="0%" stop-color="#FFEA83" />
      <stop offset="8%" stop-color="#FFDD35" />
      <stop offset="100%" stop-color="#FFA800" />
    </linearGradient>
  </defs>
  <path fill="url(#a)" d="M399.641 59.524L215.643 388.545c-3.797 6.793-13.55 6.836-17.41.076L10.582 59.558c-4.158-7.286 2.052-16.258 10.045-14.518l184.08 40.065a9.957 9.957 0 0 0 4.232-.006l180.648-40.028c7.967-1.766 14.191 7.143 10.054 14.453Z" />
  <path fill="url(#b)" d="M292.965.013 156.418 26.756a4.987 4.987 0 0 0-3.95 3.762l-8.405 41.736a4.987 4.987 0 0 0 6.057 5.87l37.98-8.649a4.987 4.987 0 0 1 5.998 5.76l-11.283 55.317a4.987 4.987 0 0 0 6.179 5.768l23.455-6.483a4.987 4.987 0 0 1 6.183 5.759l-17.934 86.939c-1.122 5.44 6.116 8.407 9.139 3.746l2.021-3.116 111.27-222.099c1.863-3.717-1.361-7.914-5.454-7.113Z" />
</svg>
